<svg xmlns="http://www.w3.org/2000/svg" viewBox="0 0 19 20" width="19" height="20">
	<style>
		tspan { white-space:pre }
		.shp0 { fill: #56ccc8 } 
	</style>
	<g id="Submenu">
		<g id="Item 1">
			<path id="-e-arrow" class="shp0" d="M9.98,0.93c4.97,0 9.02,4.07 9.02,9.07c0,5 -4.04,9.07 -9.02,9.07c-4.97,0 -9.02,-4.07 -9.02,-9.07c0,-5 4.04,-9.07 9.02,-9.07zM7.81,13.29c-0.35,0.33 -0.35,0.87 0,1.2l0.31,0.3c0.35,0.33 0.91,0.33 1.25,0l4.04,-3.87c0.01,-0.01 0.01,-0.01 0.02,-0.01l0.31,-0.3c0.17,-0.17 0.26,-0.38 0.26,-0.6c0,-0.22 -0.08,-0.44 -0.26,-0.6l-0.31,-0.3c-0.01,-0.01 -0.01,-0.01 -0.02,-0.01l-4.04,-3.9c-0.35,-0.33 -0.91,-0.33 -1.25,0l-0.31,0.3c-0.35,0.33 -0.35,0.87 0,1.2l3.44,3.32z" />
		</g>
	</g>
</svg>