<svg xmlns="http://www.w3.org/2000/svg" viewBox="0 0 14 18" width="14" height="18">
	<style>
		tspan { white-space:pre }
		.shp0 { fill: #ffffff } 
	</style>
	<g id="Post Detail">
		<g id="Article">
			<path id="-e-article" class="shp0" d="M2,1h11c0.55,0 1,0.45 1,1v15c0,0.55 -0.45,1 -1,1h-11c-0.55,0 -1,-0.45 -1,-1v-15c0,-0.55 0.45,-1 1,-1zM3,4.47c0,0.28 0.22,0.5 0.5,0.5h8c0.28,0 0.5,-0.22 0.5,-0.5c0,-0.28 -0.22,-0.5 -0.5,-0.5h-8c-0.28,0 -0.5,0.22 -0.5,0.5zM3,7.47c0,0.28 0.22,0.5 0.5,0.5h8c0.28,0 0.5,-0.22 0.5,-0.5c0,-0.28 -0.22,-0.5 -0.5,-0.5h-8c-0.28,0 -0.5,0.22 -0.5,0.5zM3,10.47c0,0.28 0.22,0.5 0.5,0.5h8c0.28,0 0.5,-0.22 0.5,-0.5c0,-0.28 -0.22,-0.5 -0.5,-0.5h-8c-0.28,0 -0.5,0.22 -0.5,0.5zM3,13.47c0,0.28 0.22,0.5 0.5,0.5h5c0.28,0 0.5,-0.22 0.5,-0.5c0,-0.28 -0.22,-0.5 -0.5,-0.5h-5c-0.28,0 -0.5,0.22 -0.5,0.5z" />
		</g>
	</g>
</svg>