<svg xmlns="http://www.w3.org/2000/svg" viewBox="0 0 33 33" width="33" height="33">
	<style>
		tspan { white-space:pre }
		.shp0 { fill: #ffffff } 
	</style>
	<g id="Post 1">
		<g id="Hover options">
			<g id="Watch later">
				<path id="-e-clock" class="shp0" d="M18.01 8.15C18.01 7.75 17.7 7.44 17.3 7.44L15.7 7.44C15.3 7.44 14.99 7.75 14.99 8.15L14.99 15.93L9.69 15.93C9.29 15.93 8.98 16.24 8.98 16.64L8.98 18.3C8.98 18.7 9.29 19.01 9.69 19.01L17.3 19.01C17.7 19.01 18.01 18.7 18.01 18.3L18.01 8.15ZM28.98 16C28.98 23.18 23.15 29.01 15.99 29.01C8.82 29.01 2.99 23.18 2.99 16C2.99 8.83 8.82 2.99 15.99 2.99C23.15 2.99 28.98 8.83 28.98 16ZM32.09 16.01C32.09 7.18 24.92 0.01 16.07 0.01C7.22 0.01 0.04 7.18 0.04 16.01C0.04 24.84 7.22 32 16.07 32C24.92 32 32.09 24.84 32.09 16.01Z" />
			</g>
		</g>
	</g>
</svg>