<svg xmlns="http://www.w3.org/2000/svg" viewBox="0 0 18 18" width="18" height="18">
	<style>
		tspan { white-space:pre }
		.shp0 { fill: #b2b9bd } 
	</style>
	<g id="Menu bar">
		<path id="-e-G+ Icon copy" class="shp0" d="M9.29 10.13C8.85 9.8 7.89 9.13 7.89 8.68C7.89 8.14 8.04 7.88 8.85 7.26C9.67 6.62 10.25 5.78 10.25 4.73C10.25 3.59 9.78 2.56 8.9 2.05L10.15 2.05L11.21 0.97C11.21 0.97 7.7 0.97 6.46 0.97C4.05 0.97 2.04 2.72 2.04 4.66C2.04 6.65 3.36 8.24 5.63 8.24C5.78 8.24 5.94 8.23 6.09 8.22C5.94 8.5 5.84 8.82 5.84 9.14C5.84 9.7 6.14 10.01 6.52 10.38C6.23 10.38 5.96 10.39 5.66 10.39C2.9 10.39 0.98 11.26 0.98 13.96C0.98 15.75 3.29 17 6.05 17C9.2 17 11.16 15.34 11.13 13.43C11.11 12 10.82 11.28 9.29 10.13ZM3.97 4.76C3.76 3.18 4.82 2.08 6.03 2.11C7.25 2.15 8.04 3.34 8.25 4.92C8.46 6.51 7.76 7.48 6.55 7.45C5.33 7.41 4.18 6.35 3.97 4.76ZM6 15.83C4.21 15.83 2.91 14.8 2.91 13.54C2.91 12.3 4.36 11.64 6.12 11.64C6.77 11.64 8.73 11.64 9.34 13.16C9.39 13.3 9.4 13.45 9.4 13.6C9.4 14.86 8.52 15.83 6 15.83ZM17.01 4.01L15.01 4.01L15.01 6L13.97 6L13.97 4.01L12 4.01L12 3.01L13.97 3.01L13.97 0.97L15.01 0.97L15.01 3.01L17.01 3.01L17.01 4.01Z" />
	</g>
</svg>