<svg xmlns="http://www.w3.org/2000/svg" viewBox="0 0 33 30" width="33" height="30">
	<style>
		tspan { white-space:pre }
		.shp0 { fill: #ea6060 } 
	</style>
	<g id="Post 2">
		<path id="-e-heart_selected" class="shp0" d="M9.01,0.97c-2.39,0 -4.5,0.72 -6.26,2.47c-3.66,3.65 -3.66,9.57 0,13.22c1.04,1.04 11.59,12.32 11.59,12.32c0.58,0.58 0.93,0.87 1.69,0.87c0.76,0 1.11,-0.29 1.68,-0.87c0,0 11.5,-11.97 11.61,-12.09c3.66,-3.65 3.66,-9.57 0,-13.22c-1.82,-1.81 -3.84,-2.71 -6.32,-2.71c-2.36,0 -5,1.88 -6.97,3.88c-2.03,-2 -4.59,-3.88 -7.03,-3.88z" />
	</g>
</svg>