<svg xmlns="http://www.w3.org/2000/svg" viewBox="0 0 34 30" width="34" height="30">
	<style>
		tspan { white-space:pre }
		.shp0 { fill: #ffffff } 
	</style>
	<g id="Post 1">
		<g id="Hover options">
			<g id="Like">
				<path id="-e-heart" class="shp0" d="M23.97 3.56C25.6 3.56 26.9 4.12 28.17 5.39C29.37 6.59 30.03 8.18 30.03 9.88C30.03 11.57 29.37 13.16 28.14 14.39C28.03 14.51 19.67 23.2 16.99 25.99C14.73 23.57 6.79 15.09 5.83 14.13C4.63 12.93 3.97 11.34 3.97 9.64C3.97 7.95 4.63 6.36 5.83 5.16C6.94 4.06 8.21 3.57 9.97 3.57C10.53 3.57 12.13 3.86 14.9 6.58C15.46 7.13 16.21 7.44 17 7.44C17.01 7.44 17.02 7.44 17.02 7.44C17.82 7.44 18.58 7.11 19.14 6.55C21.31 4.34 23.1 3.56 23.97 3.56M23.97 0.56C21.61 0.56 18.97 2.44 17 4.44C14.97 2.44 12.41 0.57 9.97 0.57C7.58 0.57 5.47 1.28 3.71 3.04C0.05 6.69 0.05 12.6 3.71 16.25C4.76 17.3 15.3 28.58 15.3 28.58C15.88 29.15 16.23 29.44 16.99 29.44C17.75 29.44 18.1 29.15 18.67 28.58C18.67 28.58 30.17 16.61 30.29 16.49C33.95 12.84 33.95 6.92 30.29 3.27C28.47 1.46 26.44 0.56 23.97 0.56L23.97 0.56Z" />
			</g>
		</g>
	</g>
</svg>