<svg xmlns="http://www.w3.org/2000/svg" viewBox="0 0 24 24" width="24" height="24">
	<style>
		tspan { white-space:pre }
		.shp0 { fill: #c5cdd1 } 
	</style>
	<g id="Menu">
		<g id="Item 6">
			<path id="-e-info" class="shp0" d="M11.91 0.88C5.69 0.93 0.69 6.07 0.79 12.29C0.89 18.52 5.98 23.46 12.21 23.42C18.43 23.32 23.43 18.17 23.33 11.95C23.23 5.73 18.14 0.78 11.91 0.88ZM13.19 4.6C14.31 4.6 14.66 5.29 14.66 6.02C14.66 7 13.87 7.88 12.6 7.88C11.52 7.88 10.98 7.3 11.03 6.41C11.03 5.68 11.67 4.6 13.19 4.6ZM10.25 19.15C9.46 19.15 8.87 18.71 9.41 16.61L10.3 12.88C10.49 12.29 10.49 12.05 10.3 12.05C10.1 12.05 9.07 12.49 8.48 12.88L8.09 12.24C10 10.63 12.16 9.7 13.09 9.7C13.87 9.7 14.02 10.63 13.63 12.05L12.6 15.97C12.4 16.65 12.5 16.9 12.7 16.9C12.89 16.9 13.68 16.61 14.46 16.02L14.9 16.61C13.04 18.47 11.03 19.15 10.25 19.15Z" />
		</g>
	</g>
</svg>