<svg xmlns="http://www.w3.org/2000/svg" viewBox="0 0 18 18" width="18" height="18">
	<style>
		tspan { white-space:pre }
		.shp0 { fill: #b2b9bd } 
	</style>
	<g id="Menu bar">
		<path id="-e-Login Icon" class="shp0" d="M17.02,16v-0.59c0,-0.85 -1.03,-1.03 -1.03,-1.03l-5.21,-2.65c1.43,-1.12 2.25,-3.33 2.25,-4.57v-2.58c0,-1.71 -1.56,-3.61 -3.84,-3.61c-2.28,0 -4.13,1.9 -4.13,3.61v2.58c0,1.13 0.82,3.41 2.27,4.56l-5.36,2.65c0,0 -1.03,0.16 -1.03,1.03v0.59c0,0.57 0.46,1.03 1.03,1.03h14.03c0.57,0 1.03,-0.46 1.03,-1.03z" />
	</g>
</svg>