<svg xmlns="http://www.w3.org/2000/svg" viewBox="0 0 23 23" width="23" height="23">
	<style>
		tspan { white-space:pre }
		.shp0 { fill: #c5cdd1 } 
	</style>
	<g id="Menu">
		<g id="Item 3_selected">
			<path id="-e-note" class="shp0" d="M21.29,5.66c0.15,-0.16 0.28,-0.28 0.33,-0.33c0.65,-0.67 0.98,-1.37 0.96,-2.08c-0.01,-0.7 -0.35,-1.37 -1.01,-2c-0.58,-0.55 -1.21,-0.83 -1.89,-0.83c-1.06,0 -1.84,0.69 -2.05,0.9c-0.03,0.03 -0.2,0.19 -0.45,0.45zM16.48,2.46c-2.76,2.77 -9.5,9.52 -9.5,9.52c-0.07,0.07 -0.12,0.15 -0.14,0.24c-0.23,0.85 -1.38,4.62 -1.39,4.66c-0.06,0.19 -0.01,0.4 0.14,0.54c0.1,0.1 0.24,0.16 0.38,0.16c0.05,0 0.11,-0.01 0.16,-0.02c0.04,-0.01 3.93,-1.27 4.56,-1.46c0.08,-0.02 0.16,-0.07 0.22,-0.13c0.33,-0.33 7.03,-6.97 9.67,-9.6zM11.77,17.77c-0.3,0.3 -0.67,0.51 -1.06,0.63c-0.62,0.18 -4.22,1.24 -4.35,1.29c-0.28,0.09 -0.54,0.13 -0.79,0.13c-0.68,0 -1.22,-0.2 -1.7,-0.68c-0.66,-0.65 -0.91,-1.63 -0.63,-2.54c0.74,-2.43 1.25,-4.12 1.37,-4.59c0.11,-0.41 0.33,-0.8 0.64,-1.12c0.01,-0.01 7.87,-7.87 7.87,-7.87h-11.79c-0.82,0 -1.32,0.58 -1.32,1.4v17.01c0,0.83 0.5,1.58 1.32,1.58h16.14c0.83,0 1.49,-0.71 1.49,-1.54l0.02,-10.79c-3.03,3.01 -6.96,6.84 -7.22,7.1z" />
		</g>
	</g>
</svg>