<svg xmlns="http://www.w3.org/2000/svg" viewBox="0 0 24 24" width="24" height="24">
	<style>
		tspan { white-space:pre }
		.shp0 { fill: #ffffff } 
	</style>
	<g id="Contact details">
		<g id="Phone">
			<path id="-e-phone" class="shp0" d="M5.76,0.39c-0.42,0 -0.86,0.13 -1.24,0.39c-0.04,0.03 -3.96,3 -3.91,4.55c0.1,3.07 2.38,6.88 6.78,11.32c4.4,4.44 8.17,6.74 11.23,6.84h0.02h0.01c1.52,0 4.43,-3.91 4.46,-3.94c0.71,-1.02 0.43,-2.17 -0.24,-2.64c-0.33,-0.24 -3.97,-2.68 -4.41,-2.95c-0.24,-0.15 -0.54,-0.22 -0.85,-0.22c-0.38,0 -0.8,0.11 -1.2,0.32c-0.31,0.16 -2.12,1.95 -2.67,2.26c-0.51,-0.38 -1.52,-1.2 -3,-2.69c-1.48,-1.5 -2.29,-2.51 -2.67,-3.03c0.32,-0.56 1.74,-2.73 1.9,-3.04c0.4,-0.76 0.43,-1.55 0.09,-2.09c-0.26,-0.41 -2.65,-4.08 -2.92,-4.45c-0.29,-0.41 -0.81,-0.63 -1.37,-0.63z" />
		</g>
	</g>
</svg>