<svg xmlns="http://www.w3.org/2000/svg" viewBox="0 0 20 15" width="20" height="15">
	<style>
		tspan { white-space:pre }
		.shp0 { fill: #ffffff } 
	</style>
	<g id="Post 3">
		<g id="Camera">
			<path id="-e-photo" class="shp0" d="M18.81 2.99L16.01 2.99L14.94 0.79C14.61 0.31 14.06 0.02 13.47 0.02L7.53 0.02C6.94 0.02 6.38 0.31 6.05 0.79L4.98 2.99L2.19 2.99C1.53 2.99 1 3.51 1 4.16C1 4.16 1 12.76 1 12.83C1 13.48 1.53 14 2.19 14L18.81 14C19.47 14 20 13.48 20 12.83L20 4.16C20 3.51 19.47 2.99 18.81 2.99ZM10.5 11.05C8.53 11.05 6.97 9.57 6.97 7.63C6.97 5.69 8.53 3.99 10.5 3.99C12.46 3.99 14.03 5.69 14.03 7.63C14.03 9.57 12.46 11.05 10.5 11.05Z" />
		</g>
	</g>
</svg>