<svg xmlns="http://www.w3.org/2000/svg" viewBox="0 0 13 18" width="13" height="18">
	<style>
		tspan { white-space:pre }
		.shp0 { fill: #ffffff } 
	</style>
	<g id="Social menu">
		<g id="Pinterest">
			<path id="-e-pinterest" class="shp0" d="M12.99,6.22c0,-2.8 -2.42,-5.41 -6.09,-5.41c-4.57,0 -6.88,3.22 -6.88,5.9c0,1.63 0.63,3.07 1.97,3.61c0.22,0.09 0.42,0 0.48,-0.24c0.05,-0.16 0.15,-0.58 0.2,-0.76c0.06,-0.24 0.04,-0.32 -0.14,-0.53c-0.39,-0.45 -0.64,-1.03 -0.64,-1.85c0,-2.39 1.82,-4.53 4.74,-4.53c2.58,0 4.01,1.55 4.01,3.62c0,2.73 -1.23,5.02 -3.05,5.02c-1.01,0 -1.76,-0.82 -1.52,-1.82c0.29,-1.2 0.85,-2.49 0.85,-3.35c0,-0.77 -0.42,-1.42 -1.3,-1.42c-1.03,0 -1.86,1.04 -1.86,2.45c0,0.89 0.31,1.49 0.31,1.49c0,0 -1.05,4.38 -1.24,5.15c-0.37,1.53 -0.06,3.4 -0.03,3.59c0.02,0.11 0.16,0.14 0.23,0.05c0.09,-0.12 1.32,-1.61 1.74,-3.09c0.12,-0.42 0.68,-2.6 0.68,-2.6c0.33,0.63 1.31,1.18 2.35,1.18c3.09,0 5.19,-2.77 5.19,-6.47z" />
		</g>
	</g>
</svg>