<svg xmlns="http://www.w3.org/2000/svg" viewBox="0 0 20 25" width="20" height="25">
	<style>
		tspan { white-space:pre }
		.shp0 { fill: #ffffff } 
	</style>
	<g id="Contact details">
		<g id="Location">
			<path id="-e-pointer" class="shp0" d="M10.06,0.01c4.95,0 8.97,3.98 8.97,8.97c0,5.23 -4.49,10.74 -7.76,14.51c-0.01,0.01 -0.54,0.6 -1.19,0.6c0,0 -0.06,0 -0.06,0c-0.65,0 -1.17,-0.59 -1.19,-0.6c-3.27,-3.76 -7.85,-9.27 -7.85,-14.51c0,-5 4.12,-8.97 9.07,-8.97zM14.02,8.99c0,-2.21 -1.81,-4 -4.04,-4c-2.23,0 -4.04,1.79 -4.04,4c0,2.21 1.81,4 4.04,4c2.23,0 4.04,-1.8 4.04,-4z" />
		</g>
	</g>
</svg>