<svg xmlns="http://www.w3.org/2000/svg" viewBox="0 0 18 17" width="18" height="17">
	<style>
		tspan { white-space:pre }
		.shp0 { fill: #ffffff } 
	</style>
	<g id="Social menu">
		<g id="Rss">
			<path id="-e-rss" class="shp0" d="M5.27,13.95c0,-1.18 -0.96,-2.13 -2.14,-2.13c-1.18,0 -2.14,0.95 -2.14,2.13c0,1.18 0.96,2.13 2.14,2.13c1.18,0 2.14,-0.95 2.14,-2.13zM11.58,16.1c0,-5.84 -4.75,-10.59 -10.58,-10.59v3.08c2,0 3.88,0.78 5.3,2.2c1.42,1.42 2.2,3.31 2.2,5.32zM17.02,16.1c0,-8.85 -7.19,-16.05 -16.02,-16.05v3.08c7.14,0 12.94,5.82 12.94,12.97z" />
		</g>
	</g>
</svg>