<svg xmlns="http://www.w3.org/2000/svg" viewBox="0 0 18 18" width="18" height="18">
	<style>
		tspan { white-space:pre }
		.shp0 { fill: #b2b9bd } 
	</style>
	<g id="Menu bar">
		<path id="-e-Search icon" class="shp0" d="M16.73 15.31L12.79 11.39C13.6 10.3 14.09 8.96 14.09 7.5C14.09 3.91 11.16 0.99 7.54 0.99C3.93 0.99 1 3.91 1 7.5C1 11.1 3.93 14.01 7.54 14.01C8.96 14.01 10.28 13.56 11.35 12.79L15.3 16.73C15.7 17.12 16.33 17.12 16.73 16.73C17.12 16.33 17.12 15.7 16.73 15.31ZM7.54 12.01C5.04 12.01 3.01 9.99 3.01 7.5C3.01 5.02 5.04 3 7.54 3C10.04 3 12.07 5.02 12.07 7.5C12.07 9.99 10.04 12.01 7.54 12.01Z" />
	</g>
</svg>