<svg xmlns="http://www.w3.org/2000/svg" viewBox="0 0 33 30" width="33" height="30">
	<style>
		tspan { white-space:pre }
		.shp0 { fill: #ffffff } 
	</style>
	<g id="Post 2">
		<path id="-e-share" class="shp0" d="M9.19,20.96c0.03,-0.35 0.19,-8.69 11.81,-8.97v5.51c0,0.25 0.14,0.47 0.36,0.58c0.22,0.11 0.48,0.08 0.68,-0.07l10.64,-8.33c0.16,-0.12 0.25,-0.31 0.25,-0.51c0,-0.2 -0.09,-0.39 -0.25,-0.51l-10.64,-8.33c-0.19,-0.15 -0.46,-0.18 -0.68,-0.07c-0.22,0.11 -0.36,0.33 -0.36,0.58v5.02c-4.06,0.12 -6.81,1.65 -9.17,4.09c-4.2,4.35 -3.79,10.71 -3.78,10.98c0.01,0.34 0.29,0.61 0.63,0.62c0,0 -0.1,0 -0.09,0c0.34,0 0.58,-0.26 0.61,-0.59zM27.99,16.24v9.11c0,0.35 -0.29,0.64 -0.64,0.64h-22.71c-0.36,0 -0.64,-0.29 -0.64,-0.64v-15.73c0,-0.35 0.29,-0.64 0.64,-0.64h4.67c0.84,-1.33 2.22,-2.59 2.84,-2.97h-9.23c-1.06,0 -1.93,0.87 -1.93,1.93v19.13c0,1.06 0.87,1.93 1.93,1.93h26.15c1.06,0 1.93,-0.87 1.93,-1.93v-13.25z" />
	</g>
</svg>