<svg xmlns="http://www.w3.org/2000/svg" viewBox="0 0 24 23" width="24" height="23">
	<style>
		tspan { white-space:pre }
		.shp0 { fill: #c5cdd1 } 
	</style>
	<g id="Menu">
		<g id="Item 2">
			<path id="-e-shop" class="shp0" d="M4.63 20.45C4.63 21.82 5.75 22.9 7.08 22.9C8.45 22.9 9.53 21.82 9.53 20.45C9.53 19.13 8.45 18 7.08 18C5.75 18 4.63 19.13 4.63 20.45ZM16.88 20.45C16.88 21.82 18 22.9 19.33 22.9C20.7 22.9 21.78 21.82 21.78 20.45C21.78 19.13 20.7 18 19.33 18C18 18 16.88 19.13 16.88 20.45ZM8.99 14.67L22.56 10.8C22.81 10.75 23 10.46 23 10.16L23 3.45L5.75 3.45L5.75 1.34C5.75 1.1 5.51 0.85 5.26 0.85L1.44 0.85C1.2 0.85 0.95 1.1 0.95 1.34L0.95 3.3L3.35 3.3L5.75 14.42L6 15.55L6 17.41C6 17.66 6.19 17.9 6.49 17.9L7.08 17.9L19.33 17.9L22.51 17.9C22.81 17.9 23 17.66 23 17.41L23 15.55L9.23 15.55C7.81 15.55 7.81 15.01 8.99 14.67Z" />
		</g>
	</g>
</svg>