<svg xmlns="http://www.w3.org/2000/svg" viewBox="0 0 27 18" width="27" height="18">
	<style>
		tspan { white-space:pre }
		.shp0 { fill: #c5cdd1 } 
	</style>
	<g id="Menu">
		<g id="Item 4">
			<path id="-e-users" class="shp0" d="M6.11,5c-1.75,0 -3.11,1.46 -3.11,2.78v1.98c0,0.87 0.43,2.62 1.54,3.51l-2.52,1.6c0,0 -1.02,0.57 -1.02,1.24v0.46c0,0.44 0.55,0.43 0.99,0.43h4.01v-1.59c0,-1.19 0.91,-1.89 1.36,-2.15c1.08,-0.87 1.64,-2.55 1.64,-3.49v-1.98c0,-1.31 -1.14,-2.78 -2.89,-2.78zM25.98,14.9l-2.52,-1.63c1.11,-0.89 1.54,-2.64 1.54,-3.51v-1.98c0,-1.31 -1.36,-2.78 -3.11,-2.78c-1.75,0 -2.89,1.46 -2.89,2.78v1.98c0,0.94 0.56,2.62 1.64,3.49c0.46,0.26 1.36,0.96 1.36,2.15v1.59h4.01c0.44,0 0.99,0 0.99,-0.43v-0.46c0,-0.67 -1.02,-1.21 -1.02,-1.21zM21.1,16v-0.59c0,-0.85 -0.98,-1.26 -0.98,-1.26l-4.46,-2.42c1.43,-1.13 2.25,-3.33 2.25,-4.57v-2.58c0,-1.71 -1.56,-3.61 -3.84,-3.61c-2.28,0 -4.13,1.9 -4.13,3.61v2.58c0,1.13 0.82,3.4 2.27,4.56l-4.12,2.32c0,0 -1.07,0.49 -1.07,1.36v0.59c0,0.57 0.46,1.03 1.03,1.03h12.03c0.57,0 1.03,-0.46 1.03,-1.03z" />
		</g>
	</g>
</svg>