<svg xmlns="http://www.w3.org/2000/svg" viewBox="0 0 21 15" width="21" height="15">
	<style>
		tspan { white-space:pre }
		.shp0 { fill: #ffffff } 
	</style>
	<g id="Post 1">
		<g id="Video icon">
			<path id="-e-video" class="shp0" d="M2.31,1c-0.72,0 -1.3,0.58 -1.3,1.3l0,10.44c0,0.72 0.58,1.31 1.3,1.31h11.38c0.72,0 1.3,-0.58 1.3,-1.31l0,-2.99l4.89,4.1c0.31,0.31 0.69,0.15 0.71,0.14c0.24,-0.1 0.4,-0.34 0.4,-0.6v-11.74c0,-0.26 -0.16,-0.5 -0.4,-0.6c-0.03,-0.01 -0.4,-0.17 -0.71,0.14l-4.89,4.1v-2.99c0,-0.72 -0.58,-1.3 -1.3,-1.3z" />
		</g>
	</g>
</svg>